<?xml version="1.0" encoding="UTF-8" standalone="no"?>
<svg
   xmlns:dc="http://purl.org/dc/elements/1.1/"
   xmlns:cc="http://creativecommons.org/ns#"
   xmlns:rdf="http://www.w3.org/1999/02/22-rdf-syntax-ns#"
   xmlns:svg="http://www.w3.org/2000/svg"
   xmlns="http://www.w3.org/2000/svg"
   xmlns:sodipodi="http://sodipodi.sourceforge.net/DTD/sodipodi-0.dtd"
   xmlns:inkscape="http://www.inkscape.org/namespaces/inkscape"
   sodipodi:docname="marine.svg"
   inkscape:version="1.0 (4035a4fb49, 2020-05-01)"
   id="svg8"
   version="1.1"
   viewBox="0 0 189.15977 80.546204"
   height="80.546204mm"
   width="189.15977mm">
  <defs
     id="defs2" />
  <sodipodi:namedview
     fit-margin-bottom="0"
     fit-margin-right="0"
     fit-margin-left="0"
     fit-margin-top="0"
     inkscape:window-maximized="1"
     inkscape:window-y="2152"
     inkscape:window-x="884"
     inkscape:window-height="1057"
     inkscape:window-width="1847"
     inkscape:guide-bbox="true"
     showguides="true"
     showgrid="false"
     inkscape:document-rotation="0"
     inkscape:current-layer="layer1"
     inkscape:document-units="mm"
     inkscape:cy="229.57532"
     inkscape:cx="269.07451"
     inkscape:zoom="1"
     inkscape:pageshadow="2"
     inkscape:pageopacity="0.0"
     borderopacity="1.0"
     bordercolor="#666666"
     pagecolor="#ffffff"
     id="base" />
  <metadata
     id="metadata5">
    <rdf:RDF>
      <cc:Work
         rdf:about="">
        <dc:format>image/svg+xml</dc:format>
        <dc:type
           rdf:resource="http://purl.org/dc/dcmitype/StillImage" />
        <dc:title></dc:title>
      </cc:Work>
    </rdf:RDF>
  </metadata>
  <g
     id="layer1"
     inkscape:groupmode="layer"
     inkscape:label="Layer 1">
    <g
       style="font-size:28.9916px;line-height:1.25;font-family:Montserrat;-inkscape-font-specification:Montserrat;fill:#3771c8;stroke-width:0.724789"
       id="text1115"
       transform="matrix(0.96053795,0,0,1.0410833,-10.420036,8.7218099e-7)"
       aria-label="MARINE">
      <path
         d="m 170.77881,72.207179 v 5.160504 H 153.9057 v -20.29412 h 16.49622 v 5.160505 h -9.77017 v 2.377311 h 8.58151 v 4.928572 h -8.58151 v 2.667228 z M 150.58072,57.073563 v 20.29412 h -5.62437 l -7.71176,-9.219328 v 9.219328 h -6.66807 v -20.29412 h 5.62437 l 7.71176,9.219329 v -9.219329 z m -30.13994,0 h 6.84202 v 20.29412 h -6.84202 z m -12.87634,15.191599 h -1.85547 v 5.102521 h -6.842013 v -20.29412 h 9.770173 q 2.81218,0 4.89958,0.927732 2.08739,0.927731 3.21806,2.667227 1.13068,1.739496 1.13068,4.058824 0,2.17437 -0.98572,3.797899 -0.98571,1.62353 -2.84117,2.580253 l 4.26176,6.262185 h -7.30588 z m 3.42101,-7.537816 q 0,-1.130673 -0.6958,-1.739496 -0.6958,-0.637815 -2.0874,-0.637815 h -2.49328 v 4.754622 h 2.49328 q 1.3916,0 2.0874,-0.608824 0.6958,-0.637815 0.6958,-1.768487 z m -21.675303,9.103362 h -7.711766 l -1.362605,3.536975 h -6.957984 l 8.87143,-20.29412 h 6.726051 l 8.871429,20.29412 h -7.07395 z m -1.884454,-4.928572 -1.971429,-5.102521 -1.971429,5.102521 z m -21.457407,8.465547 -0.05798,-9.24832 -4.406723,7.42185 h -3.01513 L 54.08173,68.438271 v 8.929412 h -6.233194 v -20.29412 h 5.62437 l 6.610085,10.813867 6.436135,-10.813867 h 5.62437 l 0.05798,20.29412 z M 157.01711,-8.3776292e-7 A 50.762249,46.834802 0 0 1 207.7792,46.834659 50.762249,46.834802 0 0 1 207.564,51.14366 50.762249,46.834802 0 0 0 157.01711,8.6170128 50.762249,46.834802 0 0 0 113.36087,31.552862 h 36.63593 a 18.119784,16.717866 0 0 1 18.09173,-15.788097 18.119784,16.717866 0 0 1 0.0953,0 18.119784,16.717866 0 0 1 17.95884,15.292717 12.684187,11.702818 0 0 0 -12.60202,-10.374169 12.684187,11.702818 0 0 0 -12.68433,11.702955 12.684187,11.702818 0 0 0 12.68433,11.702957 12.684187,11.702818 0 0 0 12.64775,-10.820902 18.119784,16.717866 0 0 1 -18.09981,15.932043 18.119784,16.717866 0 0 1 -17.64734,-12.927507 h -39.7348 a 50.762249,46.834802 0 0 0 -1.39286,3.167348 V 30.823193 A 50.762249,46.834802 0 0 1 157.01711,-8.3776292e-7 Z M 61.610076,0 A 50.762106,46.834801 0 0 0 10.848125,46.834659 50.762106,46.834801 0 0 0 11.063323,51.14366 50.762106,46.834801 0 0 1 61.610076,8.6170132 50.762106,46.834801 0 0 1 105.26619,31.552862 H 68.630369 a 18.119733,16.717866 0 0 0 -18.091686,-15.788096 18.119733,16.717866 0 0 0 -0.09522,0 A 18.119733,16.717866 0 0 0 32.484657,31.057483 12.684151,11.702818 0 0 1 45.086645,20.683314 12.684151,11.702818 0 0 1 57.770946,32.386269 12.684151,11.702818 0 0 1 45.086645,44.089226 12.684151,11.702818 0 0 1 32.438926,33.268323 18.119733,16.717866 0 0 0 50.538683,49.200366 18.119733,16.717866 0 0 0 68.185986,36.27286 h 39.734674 a 50.762106,46.834801 0 0 1 1.39287,3.167348 V 30.823194 A 50.762106,46.834801 0 0 0 61.610076,0 Z"
         style="fill:#3771c8;stroke-width:0.724789"
         id="path1127" />
    </g>
  </g>
</svg>
