<?xml version="1.0" standalone="no"?>
<!DOCTYPE svg PUBLIC "-//W3C//DTD SVG 20010904//EN"
 "http://www.w3.org/TR/2001/REC-SVG-20010904/DTD/svg10.dtd">
<svg version="1.0" xmlns="http://www.w3.org/2000/svg"
 width="2649.000000pt" height="1320.000000pt" viewBox="0 0 2649.000000 1320.000000"
 preserveAspectRatio="xMidYMid meet">

<g transform="translate(0.000000,1320.000000) scale(0.100000,-0.100000)"
fill="#000000" stroke="none">
<path d="M6310 13189 c-768 -47 -1436 -193 -2125 -465 -236 -94 -696 -320
-915 -451 -870 -520 -1594 -1205 -2151 -2038 -310 -464 -598 -1051 -773 -1575
-223 -671 -347 -1425 -346 -2116 0 -149 21 -516 40 -694 15 -151 48 -391 54
-397 1 -2 6 77 9 174 51 1400 562 2765 1446 3863 906 1125 2170 1932 3554
2269 264 65 426 95 752 140 482 68 1170 68 1655 0 818 -114 1450 -308 2145
-659 1254 -633 2274 -1655 2909 -2915 96 -191 228 -484 242 -539 l6 -26 -2290
0 -2291 0 -5 33 c-39 250 -63 344 -124 486 -97 224 -214 393 -394 567 -647
626 -1685 629 -2331 5 -159 -153 -260 -289 -351 -468 l-34 -68 92 91 c562 561
1491 408 1850 -304 83 -164 116 -314 116 -517 -1 -312 -112 -584 -330 -803
-437 -440 -1116 -463 -1590 -53 l-64 56 74 -110 c119 -174 305 -357 475 -467
508 -329 1145 -364 1685 -94 152 76 275 163 403 285 235 226 374 454 466 766
l27 90 2391 3 c1948 2 2393 0 2401 -11 13 -16 70 -221 112 -404 63 -275 81
-392 90 -593 11 -228 39 -531 49 -543 15 -16 42 221 56 488 9 163 53 427 121
715 35 149 84 323 96 338 8 9 497 12 2406 10 l2395 -3 23 -85 c47 -177 136
-365 254 -533 83 -118 268 -303 390 -390 106 -75 335 -192 451 -230 475 -156
1000 -95 1424 166 220 135 416 332 556 558 l51 81 -74 -61 c-251 -213 -505
-302 -822 -288 -304 13 -562 131 -777 355 -188 195 -288 412 -320 693 -13 120
-2 257 33 389 138 530 631 895 1173 867 279 -14 531 -120 729 -307 l59 -55
-29 53 c-87 157 -249 346 -402 469 -276 223 -591 347 -939 372 -419 30 -811
-84 -1142 -332 -369 -277 -614 -703 -667 -1159 l-6 -58 -2294 0 c-1668 0
-2294 3 -2294 11 0 6 23 65 51 131 485 1155 1279 2140 2304 2859 886 622 1900
1010 2985 1143 440 54 1014 60 1450 15 313 -32 667 -95 975 -174 1554 -397
2909 -1352 3818 -2690 682 -1005 1068 -2171 1124 -3400 8 -173 7 -174 36 65
68 553 70 1072 6 1610 -189 1599 -955 3080 -2149 4154 -1075 967 -2424 1558
-3850 1686 -541 48 -1025 35 -1560 -41 -2064 -296 -3874 -1554 -4884 -3394
-323 -588 -573 -1282 -693 -1925 l-9 -45 -49 -3 -50 -3 -29 142 c-219 1083
-732 2125 -1471 2984 -1103 1283 -2658 2098 -4340 2275 -329 35 -752 47 -1045
29z"/>
<path d="M8123 5073 c-8 -21 -69 -177 -134 -346 -163 -422 -571 -1472 -679
-1748 -49 -124 -110 -280 -136 -345 -173 -444 -321 -809 -352 -869 -21 -39
-66 -101 -104 -140 -105 -111 -198 -158 -378 -192 l-90 -17 0 -93 0 -93 715 0
715 0 0 94 0 94 -72 7 c-166 16 -346 68 -414 120 -69 53 -76 97 -44 257 22
104 138 466 210 651 l42 107 672 0 673 0 31 -82 c17 -46 76 -207 132 -358 56
-151 117 -315 135 -365 64 -174 58 -217 -40 -261 -59 -26 -218 -59 -332 -69
l-73 -7 0 -94 0 -94 790 0 790 0 0 93 0 93 -89 17 c-160 30 -252 76 -346 173
-76 79 -66 54 -415 959 -62 160 -127 328 -145 375 -18 47 -110 285 -205 530
-94 245 -198 513 -230 595 -71 183 -282 728 -378 978 l-26 67 -103 0 -104 0
-16 -37z m81 -1136 c72 -182 160 -408 197 -502 54 -138 116 -296 246 -632 4
-10 -114 -13 -571 -13 -374 0 -576 3 -576 10 0 10 22 68 345 905 108 281 201
522 207 538 5 15 13 27 16 27 4 0 65 -150 136 -333z"/>
<path d="M990 4982 l0 -88 88 -13 c305 -43 459 -182 502 -451 13 -88 14 -2228
0 -2410 -13 -163 -30 -250 -65 -323 -47 -99 -127 -163 -253 -201 -50 -14 -202
-42 -267 -48 l-30 -3 -3 -93 -3 -92 771 0 770 0 0 95 0 95 -27 0 c-48 0 -293
69 -367 104 -132 61 -194 163 -235 381 -26 143 -31 386 -31 1523 l0 1182 23 0
c25 0 3 56 498 -1270 32 -85 175 -470 319 -855 144 -385 303 -811 353 -947
l92 -248 66 0 67 0 652 1631 c597 1492 654 1630 674 1627 l21 -3 0 -1435 0
-1435 -22 -47 c-12 -26 -40 -65 -63 -88 -77 -77 -169 -104 -400 -118 l-105 -7
-3 -92 -3 -93 846 0 846 0 -3 92 -3 93 -70 7 c-249 23 -389 92 -435 215 -20
54 -20 62 -18 1521 l3 1467 27 57 c18 39 38 65 65 82 47 31 200 72 330 88 l93
11 0 89 0 88 -620 0 -620 0 -4 -22 c-20 -101 -64 -268 -89 -338 -28 -80 -96
-258 -409 -1060 -72 -184 -146 -373 -163 -420 -18 -47 -94 -242 -169 -435 -76
-192 -158 -403 -183 -468 -25 -65 -49 -114 -53 -110 -4 4 -35 80 -68 168 -57
149 -254 667 -343 903 -21 56 -57 148 -78 205 -64 168 -119 311 -160 420 -33
87 -323 848 -411 1077 l-28 75 -651 3 -651 2 0 -88z"/>
<path d="M10750 4926 l0 -94 65 -7 c81 -8 259 -48 306 -68 59 -24 106 -73 126
-130 17 -49 18 -128 18 -1517 0 -1217 -2 -1473 -14 -1513 -18 -62 -78 -129
-138 -155 -41 -17 -208 -46 -323 -54 l-35 -3 -3 -93 -3 -92 806 0 805 0 0 95
0 95 -53 0 c-59 0 -222 23 -284 39 -107 29 -166 100 -184 223 -5 35 -9 336 -9
671 l0 607 203 0 202 0 45 -58 c359 -464 716 -967 1045 -1474 l128 -198 511 0
511 0 -3 95 -3 95 -37 0 c-52 0 -180 26 -248 50 -85 29 -217 116 -299 195 -73
71 -152 174 -510 660 -109 149 -283 383 -387 522 -103 138 -188 256 -188 261
0 6 15 14 33 17 57 13 220 76 321 126 295 147 451 317 533 586 25 82 27 101
27 283 1 222 -8 271 -73 405 -146 298 -483 478 -961 515 -78 6 -511 10 -1032
10 l-898 0 0 -94z m1732 -140 c136 -26 235 -69 322 -137 113 -89 198 -223 236
-374 25 -102 28 -346 5 -455 -65 -308 -283 -538 -597 -631 -65 -20 -103 -23
-345 -26 l-273 -5 0 821 0 821 289 0 c208 0 310 -4 363 -14z"/>
<path d="M15070 4926 l0 -94 58 -6 c73 -9 230 -48 324 -81 91 -32 136 -67 168
-131 l25 -49 0 -1480 c0 -1378 -1 -1483 -17 -1516 -24 -52 -74 -98 -135 -126
-53 -25 -246 -52 -365 -53 l-58 0 0 -95 0 -95 860 0 860 0 0 95 0 95 -49 0
c-57 0 -222 32 -315 60 -124 39 -187 112 -207 241 -6 41 -9 572 -7 1469 3
1366 4 1406 23 1459 36 102 100 142 294 180 55 11 137 24 181 27 l80 7 0 93 0
94 -860 0 -860 0 0 -94z"/>
<path d="M17490 4926 l0 -93 50 -7 c65 -9 211 -56 303 -99 163 -77 250 -171
305 -331 l27 -81 3 -1120 c3 -1131 -2 -1331 -33 -1449 -31 -119 -91 -208 -166
-246 -64 -33 -340 -110 -395 -110 -24 0 -24 -1 -24 -95 l0 -95 780 0 780 0 0
95 0 95 -28 0 c-45 0 -295 66 -375 100 -146 60 -209 161 -254 402 -15 84 -17
206 -20 1241 -3 734 0 1147 6 1143 8 -5 108 -139 601 -806 114 -155 678 -915
915 -1235 94 -126 312 -420 484 -653 l313 -422 114 0 114 0 1 1493 c1 820 1
1495 0 1500 -2 13 28 260 39 317 14 75 60 170 103 211 19 19 66 46 104 61 80
31 244 74 321 84 l52 7 0 93 0 94 -775 0 -775 0 0 -93 0 -93 96 -18 c176 -33
360 -99 422 -151 69 -58 119 -205 142 -410 7 -68 10 -429 8 -1120 l-3 -1020
-122 165 c-127 171 -419 566 -502 680 -26 36 -93 126 -148 200 -290 393 -913
1237 -1021 1384 -68 92 -175 237 -238 322 l-114 154 -545 0 -545 0 0 -94z"/>
<path d="M22410 4926 l0 -94 53 -7 c191 -25 384 -96 432 -160 57 -74 55 -5 55
-1574 0 -938 -4 -1459 -10 -1482 -26 -93 -103 -159 -212 -182 -98 -20 -224
-37 -275 -37 l-43 0 0 -95 0 -95 1585 0 1585 0 0 33 c1 31 9 168 29 487 6 85
15 232 20 325 6 94 13 194 17 223 l6 53 -96 -3 -97 -3 -30 -75 c-17 -41 -59
-133 -94 -205 -149 -304 -282 -493 -378 -538 -48 -23 -171 -54 -265 -67 -214
-30 -819 -20 -935 15 -91 27 -154 71 -184 130 -46 88 -47 93 -50 813 l-4 684
313 -5 c331 -4 375 -10 470 -58 61 -31 132 -108 171 -185 33 -66 78 -196 90
-259 3 -16 11 -56 17 -87 l11 -58 95 0 94 0 0 745 0 745 -94 0 c-104 0 -99 4
-112 -75 -12 -76 -54 -210 -89 -283 -40 -84 -114 -167 -183 -205 -92 -50 -149
-57 -479 -57 l-303 0 0 761 0 761 508 -5 c322 -4 527 -10 562 -17 91 -19 161
-64 257 -164 133 -138 254 -329 299 -469 l18 -57 98 0 98 0 0 460 0 460 -1475
0 -1475 0 0 -94z"/>
</g>
</svg>
